<?xml version="1.0" encoding="utf-8"?>
<!-- Generator: Adobe Illustrator 25.3.1, SVG Export Plug-In . SVG Version: 6.00 Build 0)  -->
<svg version="1.1" id="Layer_1" xmlns="http://www.w3.org/2000/svg" xmlns:xlink="http://www.w3.org/1999/xlink" x="0px" y="0px"
	 viewBox="0 0 900 500" style="enable-background:new 0 0 900 500;" xml:space="preserve">
<style type="text/css">
	.st0{fill:#1E1E2E;}
	.st1{fill:none;stroke:#6272A4;stroke-width:4;}
	.st2{fill:#BB8FE5;}
	.st3{fill:#FF9AC6;}
	.st4{opacity:0.7;fill:#777777;}
	.st5{fill:#82F9A1;}
	.st6{fill:none;stroke:#FF9AC6;stroke-width:8;stroke-linecap:round;}
	.st7{opacity:0.95;}
	.st8{fill:#00FF66;}
	.st9{font-family:'Arial-Black';}
	.st10{font-size:40px;}
	.st11{letter-spacing:1;}
	.st12{fill:#F8F8F2;}
	.st13{opacity:0.4;fill:#F8F8F2;enable-background:new    ;}
	.st14{fill:#9933FF;}
	.st15{fill:#FF99CC;}
	.st16{fill:#6272A4;}
	.st17{font-family:'ArialMT';}
	.st18{font-size:12px;}
	.st19{opacity:0.3;fill:#BB8FE5;}
	.st20{opacity:0.3;fill:#FF9AC6;}
	.st21{opacity:0.3;fill:#82F9A1;}
</style>
<rect y="0" class="st0" width="900" height="500"/>
<line class="st1" x1="81.5" y1="268.3" x2="831.5" y2="268.3"/>
<path class="st2" d="M101.9,118.3h30c2.8,0,5,2.2,5,5v140c0,2.8-2.2,5-5,5h-30c-2.8,0-5-2.2-5-5v-140
	C96.9,120.6,99.1,118.3,101.9,118.3z"/>
<path class="st2" d="M305.9,98.3h30c2.8,0,5,2.2,5,5v160c0,2.8-2.2,5-5,5h-30c-2.8,0-5-2.2-5-5v-160
	C300.9,100.6,303.1,98.3,305.9,98.3z"/>
<path class="st3" d="M509.9,118.3h30c2.8,0,5,2.2,5,5v140c0,2.8-2.2,5-5,5h-30c-2.8,0-5-2.2-5-5v-140
	C504.9,120.6,507.1,118.3,509.9,118.3z"/>
<path class="st4" d="M713.9,118.3h30c2.8,0,5,2.2,5,5v140c0,2.8-2.2,5-5,5h-30c-2.8,0-5-2.2-5-5v-140
	C708.9,120.6,711.1,118.3,713.9,118.3z"/>
<path class="st4" d="M169.9,138.3h30c2.8,0,5,2.2,5,5v120c0,2.8-2.2,5-5,5h-30c-2.8,0-5-2.2-5-5v-120
	C164.9,140.6,167.1,138.3,169.9,138.3z"/>
<path class="st3" d="M373.9,138.3h30c2.8,0,5,2.2,5,5v120c0,2.8-2.2,5-5,5h-30c-2.8,0-5-2.2-5-5v-120
	C368.9,140.6,371.1,138.3,373.9,138.3z"/>
<path class="st2" d="M577.9,138.3h30c2.8,0,5,2.2,5,5v120c0,2.8-2.2,5-5,5h-30c-2.8,0-5-2.2-5-5v-120
	C572.9,140.6,575.1,138.3,577.9,138.3z"/>
<path class="st3" d="M781.9,138.3h30c2.8,0,5,2.2,5,5v120c0,2.8-2.2,5-5,5h-30c-2.8,0-5-2.2-5-5v-120
	C776.9,140.6,779.1,138.3,781.9,138.3z"/>
<path class="st5" d="M242.9,168.3h20c2.8,0,5,2.2,5,5v90c0,2.8-2.2,5-5,5h-20c-2.8,0-5-2.2-5-5v-90
	C237.9,170.6,240.1,168.3,242.9,168.3z"/>
<path class="st4" d="M446.9,168.3h20c2.8,0,5,2.2,5,5v90c0,2.8-2.2,5-5,5h-20c-2.8,0-5-2.2-5-5v-90
	C441.9,170.6,444.1,168.3,446.9,168.3z"/>
<path class="st5" d="M650.9,168.3h20c2.8,0,5,2.2,5,5v90c0,2.8-2.2,5-5,5h-20c-2.8,0-5-2.2-5-5v-90
	C645.9,170.6,648.1,168.3,650.9,168.3z"/>
<path class="st6" d="M524.9,103.3c52.8-87.5,158.4-87.5,211.2,0"/>
<g id="logo-text" class="st7">
	<text transform="matrix(1 0 0 1 261.3953 415.3748)" class="st8 st9 st10 st11">t</text>
	<text transform="matrix(1 0 0 1 280.1492 415.3748)" class="st12 st9 st10 st11"> </text>
	<text transform="matrix(1 0 0 1 294.4891 415.3748)" class="st13 st9 st10 st11">r</text>
	<text transform="matrix(1 0 0 1 313.243 415.3748)" class="st12 st9 st10 st11"> </text>
	<text transform="matrix(1 0 0 1 327.5828 415.3748)" class="st13 st9 st10 st11">i</text>
	<text transform="matrix(1 0 0 1 341.9031 415.3748)" class="st12 st9 st10 st11"> </text>
	<text transform="matrix(1 0 0 1 356.243 415.3748)" class="st14 st9 st10 st11">c</text>
	<text transform="matrix(1 0 0 1 383.9227 415.3748)" class="st12 st9 st10 st11"> </text>
	<text transform="matrix(1 0 0 1 398.2625 415.3748)" class="st13 st9 st10 st11">h</text>
	<text transform="matrix(1 0 0 1 425.9422 415.3748)" class="st12 st9 st10 st11"> </text>
	<text transform="matrix(1 0 0 1 440.282 415.3748)" class="st13 st9 st10 st11">r</text>
	<text transform="matrix(1 0 0 1 459.0359 415.3748)" class="st12 st9 st10 st11"> </text>
	<text transform="matrix(1 0 0 1 473.3758 415.3748)" class="st13 st9 st10 st11">o</text>
	<text transform="matrix(1 0 0 1 501.0555 415.3748)" class="st12 st9 st10 st11"> </text>
	<text transform="matrix(1 0 0 1 515.3953 415.3748)" class="st13 st9 st10 st11">m</text>
	<text transform="matrix(1 0 0 1 556.3953 415.3748)" class="st12 st9 st10 st11"> </text>
	<text transform="matrix(1 0 0 1 570.7352 415.3748)" class="st15 st9 st10 st11">a</text>
	<text transform="matrix(1 0 0 1 598.4149 415.3748)" class="st12 st9 st10 st11"> </text>
	<text transform="matrix(1 0 0 1 612.7547 415.3748)" class="st13 st9 st10 st11">t</text>
	<text transform="matrix(1 0 0 1 329.202 445.3748)" class="st16 st17 st18 st11">3 LETTERS SEQUENCE ANALYSIS</text>
</g>
<path class="st19" d="M110.2,343.1h13.3c1.2,0,2.2-1,2.2-2.2V279c0-1.2-1-2.2-2.2-2.2h-13.3c-1.2,0-2.2,1-2.2,2.2v61.8
	C108,342.1,109,343.1,110.2,343.1z"/>
<path class="st19" d="M314.2,336.2h13.3c1.2,0,2.2-0.8,2.2-1.7v-55.9c0-1-1-1.7-2.2-1.7h-13.3c-1.2,0-2.2,0.8-2.2,1.7v55.9
	C312,335.5,313,336.2,314.2,336.2z"/>
<path class="st20" d="M518.2,318.5h13.3c1.2,0,2.2-0.6,2.2-1.4v-38.9c0-0.8-1-1.4-2.2-1.4h-13.3c-1.2,0-2.2,0.6-2.2,1.4v38.9
	C516,317.9,517,318.5,518.2,318.5z"/>
<path class="st3" d="M722.2,343.1h13.3c1.2,0,2.2-1,2.2-2.2V279c0-1.2-1-2.2-2.2-2.2h-13.3c-1.2,0-2.2,1-2.2,2.2v61.8
	C720,342.1,721,343.1,722.2,343.1z"/>
<path class="st3" d="M178.2,324.4h13.3c1.2,0,2.2-0.8,2.2-1.8v-43.9c0-1-1-1.8-2.2-1.8h-13.3c-1.2,0-2.2,0.8-2.2,1.8v43.9
	C176,323.6,177,324.4,178.2,324.4z"/>
<path class="st20" d="M382.2,343.1h13.3c1.2,0,2.2-1.1,2.2-2.5v-61.2c0-1.4-1-2.5-2.2-2.5h-13.3c-1.2,0-2.2,1.1-2.2,2.5v61.2
	C380,341.9,381,343.1,382.2,343.1z"/>
<path class="st19" d="M586.2,324.4h13.3c1.2,0,2.2-0.8,2.2-1.8v-43.9c0-1-1-1.8-2.2-1.8h-13.3c-1.2,0-2.2,0.8-2.2,1.8v43.9
	C584,323.6,585,324.4,586.2,324.4z"/>
<path class="st20" d="M792,318.5h9.8c0.9,0,1.6-0.7,1.6-1.6v-38.5c0-0.9-0.7-1.6-1.6-1.6H792c-0.9,0-1.6,0.7-1.6,1.6v38.5
	C790.4,317.8,791.1,318.5,792,318.5z"/>
<path class="st21" d="M246.1,336.2h10.7c1.5,0,2.7-1.3,2.7-3v-53.5c0-1.6-1.2-3-2.7-3h-10.7c-1.5,0-2.7,1.3-2.7,3v53.5
	C243.4,334.9,244.6,336.2,246.1,336.2z"/>
<path class="st3" d="M452.5,336.2h8.8c1.2,0,2.2-1.3,2.2-3v-53.5c0-1.6-1-3-2.2-3h-8.8c-1.2,0-2.2,1.3-2.2,3v53.5
	C450.2,334.9,451.2,336.2,452.5,336.2z"/>
<path class="st21" d="M656.5,321h8.8c1.2,0,2.2-1,2.2-2.2V279c0-1.2-1-2.2-2.2-2.2h-8.8c-1.2,0-2.2,1-2.2,2.2v39.8
	C654.2,320,655.2,321,656.5,321z"/>
</svg>
